HIERARCHY
ROOT Hips
{
	OFFSET -3.958830 18.904000 13.208200
	CHANNELS 6 Xposition Yposition Zposition Zrotation Yrotation Xrotation 
	JOINT LHipJoint
	{
		OFFSET 0.000000 0.000000 0.000000
		CHANNELS 3 Zrotation Yrotation Xrotation
		JOINT LeftUpLeg
		{
			OFFSET 1.800000 -1.400000 0.085000
			CHANNELS 3 Zrotation Yrotation Xrotation
			JOINT LeftLeg
			{
				OFFSET 2.215000 -6.000000 0.000000
				CHANNELS 3 Zrotation Yrotation Xrotation
				JOINT LeftFoot
				{
					OFFSET 2.500000 -6.900000 0.000000
					CHANNELS 3 Zrotation Yrotation Xrotation
					JOINT LeftToeBase
					{
						OFFSET 0.200000 -0.500000 1.950000
						CHANNELS 3 Zrotation Yrotation Xrotation
						End Site
						{
							OFFSET 0.000000 0.000000 0.000000
						}
					}
				}
			}
		}
	}
	JOINT RHipJoint
	{
		OFFSET 0.000000 0.000000 0.000000
		CHANNELS 3 Zrotation Yrotation Xrotation
		JOINT RightUpLeg
		{
			OFFSET -1.800000 -1.400000 0.085000
			CHANNELS 3 Zrotation Yrotation Xrotation
			JOINT RightLeg
			{
				OFFSET -2.215000 -6.000000 0.000000
				CHANNELS 3 Zrotation Yrotation Xrotation
				JOINT RightFoot
				{
					OFFSET -2.500000 -6.900000 0.000000
					CHANNELS 3 Zrotation Yrotation Xrotation
					JOINT RightToeBase
					{
						OFFSET -0.200000 -0.500000 1.950000
						CHANNELS 3 Zrotation Yrotation Xrotation
						End Site
						{
							OFFSET 0.000000 0.000000 0.000000
						}
					}
				}
			}
		}
	}
	JOINT LowerBack
	{
		OFFSET 0.000000 0.000000 0.000000
		CHANNELS 3 Zrotation Yrotation Xrotation
		JOINT Spine
		{
			OFFSET -0.087000 1.940000 -0.288900
			CHANNELS 3 Zrotation Yrotation Xrotation
			JOINT Spine1
			{
				OFFSET 0.000000 1.950000 0.060000
				CHANNELS 3 Zrotation Yrotation Xrotation
				JOINT Neck
				{
					OFFSET 0.000000 0.000000 0.000000
					CHANNELS 3 Zrotation Yrotation Xrotation
					JOINT Neck1
					{
						OFFSET 0.000000 1.600000 0.340000
						CHANNELS 3 Zrotation Yrotation Xrotation
						JOINT Head
						{
							OFFSET 0.000000 1.667000 -0.240000
							CHANNELS 3 Zrotation Yrotation Xrotation
							End Site
							{
								OFFSET 0.000000 0.000000 0.000000
							}
						}
					}
				}
				JOINT LeftShoulder
				{
					OFFSET 0.000000 0.000000 0.000000
					CHANNELS 3 Zrotation Yrotation Xrotation
					JOINT LeftArm
					{
						OFFSET 2.700000 1.550000 -0.730000
						CHANNELS 3 Zrotation Yrotation Xrotation
						JOINT LeftForeArm
						{
							OFFSET 5.450000 0.000000 0.000000
							CHANNELS 3 Zrotation Yrotation Xrotation
							JOINT LeftHand
							{
								OFFSET 3.450000 0.000000 0.000000
								CHANNELS 3 Zrotation Yrotation Xrotation
								JOINT LeftHandIndex1
								{
									OFFSET 0.750000 0.000000 0.000000
									CHANNELS 3 Zrotation Yrotation Xrotation
									End Site
									{
										OFFSET 0.000000 0.000000 0.000000
									}
								}
							}
						}
					}
				}
				JOINT RightShoulder
				{
					OFFSET 0.000000 0.000000 0.000000
					CHANNELS 3 Zrotation Yrotation Xrotation
					JOINT RightArm
					{
						OFFSET -2.700000 1.550000 -0.730000
						CHANNELS 3 Zrotation Yrotation Xrotation
						JOINT RightForeArm
						{
							OFFSET -5.450000 0.000000 0.000000
							CHANNELS 3 Zrotation Yrotation Xrotation
							JOINT RightHand
							{
								OFFSET -3.450000 0.000000 0.000000
								CHANNELS 3 Zrotation Yrotation Xrotation
								JOINT RightHandIndex1
								{
									OFFSET -0.750000 0.000000 0.000000
									CHANNELS 3 Zrotation Yrotation Xrotation
									End Site
									{
										OFFSET 0.000000 0.000000 0.000000
									}
								}
							}
						}
					}
				}
			}
		}
	}
}
MOTION
Frames: 14
Frame Time: 0.016667
-0.266130 17.100320 -2.356390 -1.568171 -26.440406 -8.605015 -15.385577 14.463896 2.357274 10.242246 1.723352 2.517676 -1.606783 6.781131 17.863931 -0.290329 5.460636 2.851424 0.640070 0.229670 0.556710 17.991435 -10.049961 3.186175 -22.277943 2.867883 -24.608212 17.877892 -13.939734 35.238326 -0.847378 -6.880076 2.026773 0.146020 0.068530 0.141030 -2.499298 -4.389982 -7.484872 0.665805 -3.109123 13.145087 -0.963876 -3.693625 13.049628 1.597759 -6.535132 -15.159921 -19.295358 20.567972 47.149644 -2.292410 13.067250 -10.584650 -8.178113 -11.613224 7.597694 -31.493366 -5.864203 0.476852 7.941845 -15.151745 -1.692816 -3.566360 2.720458 0.805250 0.000850 0.082880 0.206930 6.244566 16.313493 9.568649 36.997581 13.181511 -3.256101 -114.855438 68.598233 -106.376148 2.134945 -0.088930 -0.237740 0.268240 -0.131700 -0.390700 
-0.316210 17.091940 -2.339980 -1.671936 -24.049480 -7.448458 -15.244874 14.337893 2.270837 10.558919 1.513293 0.641439 -1.630954 6.782694 18.539391 -0.310307 5.354968 2.911298 0.624510 0.226540 0.503040 18.104752 -10.330069 3.120449 -22.075384 2.698649 -23.621808 17.358743 -13.516756 34.097873 -0.773919 -6.717217 2.114943 0.154300 0.140890 0.122390 -2.935775 -3.740902 -7.295244 3.163427 -3.297036 11.545809 -2.859033 -3.631790 12.978814 1.473834 -7.079160 -14.633132 -19.127718 19.822633 44.941059 -1.224010 11.645630 -9.060860 -7.397777 -10.355441 7.357202 -33.760904 -4.713865 -0.090806 8.280152 -15.847786 -1.783964 -3.595396 2.734643 0.741280 0.039750 0.026330 0.243960 5.494186 15.568804 9.219510 40.228604 15.001453 -2.534442 -126.255436 69.853410 -123.572131 2.030272 -1.284985 -0.245430 0.296240 -0.135180 -0.350450 
-0.351870 17.081950 -2.324780 -1.752712 -21.273798 -6.098027 -15.077252 14.134281 2.148416 10.436414 1.250305 -1.572693 -1.279055 6.627270 19.348416 -0.380864 5.252237 2.989441 0.559850 0.167990 0.389530 18.258878 -10.606846 3.118278 -22.042418 2.589806 -23.076430 17.338350 -13.291777 32.901420 -0.678501 -6.673995 2.165332 0.165480 0.289970 0.106850 -3.475326 -2.931746 -7.096630 6.219115 -3.313541 9.951353 -5.334157 -3.426276 12.763884 1.266705 -7.411593 -13.535697 -17.848019 18.602127 41.363148 0.071290 9.864530 -6.277630 -6.461307 -8.226640 6.576753 -35.586494 -3.974919 -0.656820 8.021352 -17.221139 -1.840955 -3.694632 2.744975 0.649860 0.136060 -0.091750 0.285170 4.632627 13.708658 8.535307 44.013512 17.078262 -1.161706 -137.663276 70.504388 -138.051874 1.835096 -1.783543 -0.297180 0.343520 -0.096130 -0.305020 
-0.382610 17.081440 -2.319690 -1.737854 -18.174711 -4.909156 -14.931747 13.901118 2.059036 10.338587 0.992371 -3.868488 -1.318765 6.552243 19.835825 -0.407911 5.134227 3.061809 0.486410 0.103680 0.277240 18.392316 -10.869772 3.135386 -22.037355 2.568011 -22.652034 17.405765 -13.122138 31.864068 -0.591118 -6.667967 2.203606 0.153280 0.420280 0.112400 -3.923801 -2.080143 -6.978624 8.763017 -2.906602 8.793358 -7.690699 -2.919672 12.450226 1.438263 -7.110025 -12.440433 -15.472135 16.775300 38.775861 0.567500 8.120640 -3.339340 -6.633839 -6.176691 5.532172 -35.945506 -3.164169 -1.266909 8.489649 -17.979177 -1.846127 -3.809622 2.772216 0.536760 0.235400 -0.198160 0.316410 4.175916 11.621253 8.167541 47.788051 18.335465 0.644883 -147.916102 69.095854 -149.973124 1.705162 -1.988353 -0.314760 0.355050 -0.058830 -0.252590 
-0.410140 17.095890 -2.324810 -1.514851 -15.067708 -4.102257 -14.830455 13.712629 2.025651 10.037613 0.753907 -5.980602 -1.391855 6.455599 20.070465 -0.463652 5.010416 3.122396 0.434640 0.042280 0.214600 18.477389 -11.095668 3.143128 -21.999746 2.630101 -22.171288 17.259749 -12.854955 30.993120 -0.520315 -6.612016 2.246233 0.141200 0.501030 0.109770 -4.212781 -1.375454 -6.943056 10.278697 -2.356309 8.516532 -8.749766 -2.395845 12.096396 1.552074 -6.853335 -11.648569 -13.779627 15.071201 37.029813 0.538510 6.363460 -2.227450 -6.478389 -4.242316 4.600304 -36.927550 -2.259466 -1.903898 9.439312 -18.036743 -1.922617 -3.894234 2.764545 0.483230 0.291990 -0.271600 0.324320 3.675171 9.909903 8.048972 51.137503 19.555309 2.768402 -154.597843 66.761785 -157.803557 1.632549 -2.042150 -0.341420 0.375440 -0.022940 -0.232230 
-0.423940 17.109260 -2.323940 -1.773422 -11.900854 -3.016550 -14.721907 13.502223 2.000823 10.022523 0.476740 -8.019433 -1.423442 6.321446 20.043495 -0.499807 4.846718 3.186619 0.370830 -0.018860 0.155540 18.568801 -11.319939 3.172586 -21.602513 2.726042 -21.832244 17.327420 -12.595596 29.935260 -0.446633 -6.535583 2.296021 0.121200 0.555470 0.098390 -4.522576 -0.606415 -6.935616 12.364550 -1.941582 8.151144 -9.909076 -2.015042 11.778480 1.987974 -6.135430 -11.051893 -11.293673 13.372868 35.242294 -0.175920 5.501820 -0.813600 -6.709612 -2.709509 3.959779 -37.161786 -0.267649 -2.972332 10.010751 -20.410772 -1.989305 -3.941057 2.785236 0.416080 0.345460 -0.340140 0.318270 2.921779 8.229975 8.066211 54.442696 20.601888 5.159569 -157.472480 64.175617 -160.973582 1.612440 -2.082710 -0.359460 0.370530 0.005860 -0.218100 
-0.428910 17.133190 -2.332220 -2.239573 -8.150251 -2.250971 -14.638694 13.331772 2.023640 10.301726 0.161590 -10.094240 -1.570149 6.212392 19.977328 -0.540785 4.720875 3.235414 0.328090 -0.078770 0.133380 18.622857 -11.561807 3.157815 -20.780824 2.753495 -21.154959 16.896063 -12.206543 28.973497 -0.396231 -6.399433 2.369071 0.091290 0.589870 0.117100 -4.744749 0.094043 -6.982795 14.074345 -1.438339 8.380430 -10.204401 -1.596088 11.320415 2.589417 -4.854944 -10.496476 -8.139600 11.196396 34.355808 -1.565510 4.824170 -0.225980 -7.412470 -1.433739 3.191433 -37.296593 1.161424 -3.950201 10.470267 -23.095904 -2.095027 -3.975638 2.792315 0.391520 0.388730 -0.370440 0.317200 2.343895 6.422198 8.197025 57.126705 20.697986 6.955980 -159.923696 61.272667 -163.813496 1.590650 -2.105743 -0.370170 0.361540 0.023890 -0.218100 
-0.423050 17.163980 -2.337460 -2.881610 -3.984887 -1.548053 -14.577214 13.176786 2.059409 10.655523 -0.146854 -12.192648 -1.467541 6.006924 19.847115 -0.555127 4.538589 3.278009 0.299790 -0.110610 0.124980 18.655156 -11.795842 3.123649 -19.747245 2.628253 -20.019742 16.545639 -11.725371 27.421712 -0.352991 -6.207328 2.450229 0.057370 0.576110 0.151730 -4.927939 0.742856 -7.029224 15.637835 -0.994178 8.396651 -9.907547 -1.298041 10.938199 3.278338 -3.157852 -10.118302 -4.561807 8.601233 33.669678 -3.670460 4.399780 0.286650 -8.396932 -0.419933 2.729841 -37.837217 3.333960 -5.344790 10.491772 -27.429127 -2.218425 -3.968209 2.863665 0.356130 0.416410 -0.375330 0.304090 1.896222 4.523209 8.320633 59.502754 20.395972 8.417581 -160.351881 58.300825 -163.748165 1.599691 -2.151194 -0.340820 0.304490 0.028130 -0.217410 
-0.409570 17.195510 -2.344890 -3.440587 -0.512639 -0.884420 -14.527073 13.015423 2.097739 10.884878 -0.369245 -13.875609 -1.328024 5.778082 19.452720 -0.607720 4.376960 3.327107 0.261460 -0.165540 0.122730 18.683626 -12.001365 3.113354 -18.824182 2.581788 -19.124407 16.209028 -11.212408 25.850572 -0.306202 -5.993094 2.546277 0.028050 0.574550 0.157030 -5.100024 1.372181 -7.074093 16.974772 -0.461779 8.430623 -9.381738 -0.865675 10.526324 3.840180 -1.466595 -9.929001 -1.165948 6.440375 32.898641 -5.103740 3.952700 0.195100 -8.883944 0.719639 2.534386 -39.763653 6.201135 -7.234191 11.834893 -32.855318 -2.788569 -3.947846 2.891583 0.362890 0.432180 -0.384320 0.284670 1.214873 2.540465 8.431945 61.903246 20.011643 9.642033 -160.946146 55.849153 -164.144273 1.593324 -2.151622 -0.356930 0.296600 0.046980 -0.235890 
-0.393440 17.215230 -2.360610 -3.892922 2.830199 -0.084462 -14.502922 12.822398 2.139164 10.937885 -0.623902 -15.867879 -1.054719 5.493645 19.129223 -0.647827 4.171273 3.371060 0.284740 -0.151800 0.164750 18.703151 -12.154931 3.129439 -18.094900 2.640125 -18.685323 16.111453 -10.846953 24.673810 -0.295672 -5.860581 2.580121 0.031110 0.531710 0.190340 -5.236030 1.976074 -7.108233 17.697858 0.329644 8.427053 -8.258401 -0.271739 9.782801 4.241209 0.434360 -9.522223 2.443510 4.301738 31.585649 -6.377340 3.606670 -0.288320 -9.368202 2.258424 2.150883 -41.067085 8.497558 -8.696932 11.877717 -37.248300 -2.996436 -3.919555 2.989949 0.356030 0.433690 -0.366840 0.272660 0.878364 -0.008441 8.209861 63.860706 19.384195 10.735779 -160.810530 53.560732 -163.057522 1.589512 -2.210421 -0.330300 0.245030 0.028800 -0.252250 
-0.369780 17.231670 -2.382570 -4.432798 6.155577 0.666748 -14.500430 12.629088 2.199169 11.130375 -0.836143 -18.177393 -0.859343 5.378820 19.413483 -0.723172 4.066133 3.360826 0.291510 -0.135190 0.174490 18.713447 -12.277623 3.110843 -17.215314 2.645294 -18.046398 15.810821 -10.406324 23.409153 -0.271081 -5.702919 2.630797 0.051780 0.497760 0.195400 -5.339414 2.495282 -7.111779 18.205497 1.338455 8.392787 -6.720762 0.581636 9.115576 4.489278 2.265817 -9.182612 5.751413 2.040776 29.991463 -7.186080 2.766590 -1.470690 -9.753152 3.630069 1.775591 -42.538046 10.248189 -10.112909 11.990707 -41.747755 -3.346727 -3.897210 3.054074 0.364450 0.434300 -0.362950 0.246990 0.783544 -2.411407 7.931187 64.890181 18.118706 11.121189 -160.082154 50.438411 -160.425718 1.569860 -2.231126 -0.331710 0.227520 0.041740 -0.274790 
-0.342430 17.233590 -2.394820 -4.795686 9.051600 1.738215 -14.541047 12.422733 2.272072 11.104731 -1.049137 -20.432596 -0.778620 5.273663 19.457877 -0.778185 3.970609 3.368324 0.332410 -0.093230 0.227460 18.700164 -12.342277 3.070162 -16.499028 2.663603 -17.677770 15.346580 -9.909968 22.225627 -0.250582 -5.548381 2.676342 0.087130 0.468010 0.220540 -5.338331 2.914873 -7.053034 17.467578 2.609898 7.916154 -4.261599 1.555383 8.435689 4.597293 4.170579 -8.907688 9.067795 -0.713871 27.563583 -8.418500 1.754870 -2.202680 -10.309107 4.971840 1.635627 -43.893962 13.016092 -11.852598 12.318065 -46.827454 -3.917710 -3.878452 3.145522 0.351230 0.450960 -0.353940 0.238980 1.197794 -4.810548 7.336944 64.614612 16.447377 10.979418 -160.130083 47.535767 -159.028918 1.547567 -2.282347 -0.317720 0.204030 0.021190 -0.293820 
-0.310840 17.239650 -2.415350 -5.113637 11.857588 2.778526 -14.574338 12.228673 2.375795 10.984546 -1.269152 -22.592294 -0.773610 5.169734 19.256771 -0.832955 3.899485 3.391698 0.348640 -0.091380 0.252930 18.695797 -12.408458 3.000872 -15.565110 2.714615 -17.580485 14.269211 -9.370882 21.734651 -0.211307 -5.379273 2.743165 0.110200 0.479020 0.230370 -5.358146 3.275593 -6.992113 16.833181 3.610389 7.605624 -2.322542 2.394280 7.903252 4.386458 5.425296 -8.801471 11.306633 -2.857719 25.338197 -8.457580 0.324010 -2.365570 -10.192550 6.178847 1.654655 -45.147201 15.997641 -13.729994 11.395902 -51.306944 -4.169855 -3.866585 3.218175 0.344080 0.472290 -0.367890 0.239600 1.477797 -6.553329 6.895338 64.490675 15.038095 10.877779 -159.638484 44.083122 -156.026113 1.530934 -2.299682 -0.330350 0.214760 0.018410 -0.306080 
-0.281560 17.250400 -2.433300 -4.974592 14.844814 3.854694 -14.642502 12.070916 2.510243 10.405943 -1.548908 -24.583049 -0.917714 5.062895 18.848549 -0.883286 3.798585 3.421022 0.348410 -0.094880 0.257680 18.654520 -12.420576 2.920475 -15.184483 2.651227 -17.286368 13.311039 -8.872939 21.039447 -0.172212 -5.227522 2.788653 0.126890 0.482340 0.230630 -5.274483 3.440177 -6.941606 15.252100 4.563580 7.676665 -0.279433 3.267926 6.979508 3.972338 6.407617 -8.632752 13.092568 -4.955108 23.227862 -8.328640 -1.071610 -2.516810 -10.246551 7.490236 1.612748 -45.400304 19.340446 -15.415177 9.053875 -55.564211 -3.824833 -3.838691 3.321099 0.340090 0.480990 -0.380300 0.230180 2.263944 -8.112523 6.369916 64.404375 12.874426 10.011878 -160.044856 41.476462 -155.191730 1.521344 -2.311652 -0.343620 0.220260 0.027630 -0.314050 
